<svg xmlns="http://www.w3.org/2000/svg" width="172.563" height="42.413" viewBox="0 0 172.563 42.413"><g transform="translate(-988.753 -662.018)"><path d="M1088.873,696.279H1079.7l-1.177-15.814v-2.524h-1.01v2.524l-1.177,15.814h-9.169l-1.388-20.861h4.879l.925,15.814v2.524h1.009v-2.524l1.052-15.814h8.748l1.051,15.814v2.524h1.01v-2.524l.925-15.814h4.879Z" fill="#db7326"/><path d="M1161.316,696.279h-5.307V681.622a1.8,1.8,0,0,0-.442-1.327,1.57,1.57,0,0,0-1.158-.442,1.751,1.751,0,0,0-1.327.5,2.115,2.115,0,0,0-.484,1.517v14.4h-5.307V681.622a1.709,1.709,0,0,0-.485-1.327,1.662,1.662,0,0,0-1.158-.442,1.717,1.717,0,0,0-1.264.5,2.063,2.063,0,0,0-.505,1.517v14.4h-5.307V675.388h5.307v2.022h.758a3.262,3.262,0,0,1,1.159-1.874,3.65,3.65,0,0,1,2.379-.737,3.784,3.784,0,0,1,2.359.737,3.59,3.59,0,0,1,1.306,1.874h.758a3.414,3.414,0,0,1,1.411-1.874,4.616,4.616,0,0,1,2.674-.737,4.3,4.3,0,0,1,3.37,1.411,5.632,5.632,0,0,1,1.263,3.895Z" fill="#db7326"/><path d="M1109.8,690.577V675.389h-15.5v4.327h11.173v1.034l-9.309,5.355a5.527,5.527,0,0,0-2.811,4.832,5.376,5.376,0,0,0,1.706,4.017,5.744,5.744,0,0,0,3.9,1.556,5.44,5.44,0,0,0,2.77-.744l4.45-2.6,4.07,3.527,2.885-3.221Zm-4.327-4.494v2.843l-5.906,3.428a1.206,1.206,0,0,1-.641.166,1.3,1.3,0,0,1-1.246-1.247,1.177,1.177,0,0,1,.641-1.078Z" fill="#db7326"/><path d="M1132.367,677.022a7.145,7.145,0,0,0-5.214-2.172,7.041,7.041,0,0,0-5.494,2.422l-2.443-2.242-3.131,3.5,3.683,3.341v9.86H1116.6v4.553h12.6v-4.553h-4.736v-9.491a2.69,2.69,0,1,1,5.381,0v1.742h4.695v-1.742a7.138,7.138,0,0,0-2.172-5.214" fill="#db7326"/><path d="M1062.431,688.628a6.035,6.035,0,0,0-4.209-4.063,25,25,0,0,0-3.322-.857,10.546,10.546,0,0,1-3.38-1.129,1.771,1.771,0,0,1-.109-3.036,3.893,3.893,0,0,1,2.89-.494,5.842,5.842,0,0,1,2.607,1.433c.142.124,1.641,1.547,1.742,1.654l.264.288,2.831-3.208-.23-.233c-.047-.047-1.15-1.164-1.691-1.635a9.545,9.545,0,0,0-4.7-2.411,9.06,9.06,0,0,0-5.4.819,7.271,7.271,0,0,0-1.257.825,5.748,5.748,0,0,0-2.191,4.644,4.955,4.955,0,0,0,1.929,4.337,12.8,12.8,0,0,0,4.962,2.011,17.9,17.9,0,0,1,3.9,1.168,1.288,1.288,0,0,1,.92,1.277,2.037,2.037,0,0,1-.993,1.874,5.628,5.628,0,0,1-5.541.012,9.274,9.274,0,0,1-1.5-1.157c-.165-.145-.33-.29-.495-.431-.5-.421-1.475-1.352-1.485-1.361l-.272-.259L1044.959,692l.243.226s1.123,1.045,1.222,1.135a11.792,11.792,0,0,0,5.475,3.1,11.659,11.659,0,0,0,2.338.232,9.209,9.209,0,0,0,5.838-1.83,6.3,6.3,0,0,0,2.356-6.24" fill="#db7326"/><path d="M1008.225,698.964v-10.9l-9.737-5.468-9.735,5.468v10.9l9.736,5.467Z" fill="#db7326"/><path d="M1021.121,673.622l.045.022,5.143-2.886v-5.827l-5.188-2.913-5.148,2.89,0,.045v5.778Z" fill="#db7326"/><path d="M1011.4,688.06v10.9l9.736,5.468,9.737-5.468v-10.9l-9.736-5.469Z" fill="#db7326"/><path d="M1014.747,672.913l-1.277-.717v-6.423l-3.727-2.226-9.726,5.462v10.9l9.735,5.468,9.736-5.468v-4.34Z" fill="#db7326"/></g></svg>