<svg xmlns="http://www.w3.org/2000/svg" width="25" height="25" viewBox="0 0 25 25"><defs><style>.a{fill:#fafafa;}.b{fill:none;}</style></defs><path  d="M22.318,19.4a.656.656,0,0,0-.82.44A9.022,9.022,0,0,1,4.647,21.285l2.065.962a.649.649,0,0,0,.828-.3.656.656,0,0,0-.283-.887L3.745,19.414a.641.641,0,0,0-.485,0,.664.664,0,0,0-.373.336l-1.64,3.5a.626.626,0,0,0-.067.276.656.656,0,0,0,1.245.283l.984-2.088A10.267,10.267,0,0,0,12.8,27.772h0a10.341,10.341,0,0,0,9.961-7.59A.656.656,0,0,0,22.318,19.4Z" transform="translate(-0.3 -4.927)"/><path d="M24.646,6.6a.656.656,0,0,0-.887.283l-.977,2.05a10.438,10.438,0,0,0-6.651-5.681A10.334,10.334,0,0,0,3.456,10.473a.649.649,0,0,0,.44.746.641.641,0,0,0,.5-.045.634.634,0,0,0,.321-.4A9.014,9.014,0,0,1,21.529,9.384l-2.013-.962a.656.656,0,0,0-.544,1.186l3.489,1.64h.075a.462.462,0,0,0,.2,0,.451.451,0,0,0,.38-.082l.06-.06-.164-.194h0l.171.186h0l.06-.075a.41.41,0,0,0,.067-.1l1.633-3.475a.649.649,0,0,0-.3-.843ZM22.946,10.972Z" transform="translate(-0.876 -0.735)"/><rect class="b" width="25" height="25"/></svg>