<svg xmlns="http://www.w3.org/2000/svg" viewBox="0 0 33.53 33.53"><defs><style>.cls-1{fill:none;}</style></defs><title>Switcher</title><g id="Layer_2" data-name="Layer 2"><g id="Layer_1-2" data-name="Layer 1"><path d="M24.42,15.07l.54.58a.38.38,0,0,0,.53,0l6.22-5.78a.38.38,0,0,0,0-.55L25.49,3.56a.37.37,0,0,0-.53,0l-.54.58a.39.39,0,0,0,0,.54L28.8,8.76H1.9a.38.38,0,0,0-.38.38v1a.38.38,0,0,0,.38.38H28.8l-4.36,4.07A.38.38,0,0,0,24.42,15.07Z"/><rect class="cls-1" width="33.53" height="33.53"/><path d="M9.11,17.11l-.54-.58a.38.38,0,0,0-.53,0L1.82,22.29a.38.38,0,0,0,0,.55L8,28.62a.37.37,0,0,0,.53,0L9.11,28a.39.39,0,0,0,0-.54L4.73,23.42h26.9a.38.38,0,0,0,.38-.38v-1a.38.38,0,0,0-.38-.38H4.73l4.36-4.07A.38.38,0,0,0,9.11,17.11Z"/></g></g></svg>