<svg xmlns="http://www.w3.org/2000/svg"  viewBox="0 0 58 35.548"><path d="M11.874,6.946a24.588,24.588,0,0,1,34.252,0L47.265,8.06a1.168,1.168,0,0,1,0,1.677l-3.894,3.813a.615.615,0,0,1-.856,0l-1.566-1.534a17.153,17.153,0,0,0-23.9,0l-1.678,1.642a.615.615,0,0,1-.856,0L10.624,9.846a1.168,1.168,0,0,1,0-1.677ZM54.18,14.83l3.466,3.393a1.168,1.168,0,0,1,0,1.677L42.018,35.2a1.23,1.23,0,0,1-1.713,0h0L29.214,24.342a.307.307,0,0,0-.428,0h0L17.7,35.2a1.23,1.23,0,0,1-1.713,0h0L.355,19.9a1.168,1.168,0,0,1,0-1.677L3.82,14.83a1.23,1.23,0,0,1,1.713,0L16.624,25.69a.307.307,0,0,0,.428,0h0L28.143,14.83a1.23,1.23,0,0,1,1.713,0h0L40.948,25.69a.307.307,0,0,0,.428,0L52.467,14.83a1.23,1.23,0,0,1,1.713,0Z" transform="translate(0 0)" fill="#3b99fc"/></svg>